<svg width="160" height="52" viewBox="0 0 160 52" fill="none" xmlns="http://www.w3.org/2000/svg">
<path d="M46.6587 21.3135C46.3658 20.2051 45.4285 19.4467 44.3154 19.2717L34.942 17.8716L30.724 9.00428C30.2553 7.95421 29.318 7.3125 28.2635 7.3125C27.1504 7.3125 26.0959 7.95421 25.6272 9.00428L21.4092 17.8716L12.0358 19.4467C10.9228 19.6217 9.98542 20.3801 9.6925 21.4885C9.39958 22.5969 9.51675 23.647 10.3369 24.5804L17.1912 31.5809L15.6094 41.3815C15.4337 42.49 15.9024 43.715 16.8397 44.3567C17.3084 44.5318 17.9528 44.6484 18.4215 44.6484C18.8901 44.6484 19.3588 44.4734 19.8275 44.3567L28.2635 39.8648L36.6995 44.3567C37.6369 44.8234 38.8671 44.8234 39.6873 44.1817C40.6246 43.54 41.0933 42.4899 40.9176 41.2065L39.3358 31.4058L46.1901 24.4054C46.8345 23.647 47.1274 22.4219 46.6587 21.3135ZM36.6995 29.539C36.2309 30.0057 36.0551 30.6475 36.0551 31.4058L37.754 41.3815L29.1423 36.7145C28.8493 36.5395 28.4978 36.4229 28.2049 36.4229C27.912 36.4229 27.5605 36.5979 27.2676 36.7145L18.8315 41.3815L20.4133 31.4058C20.589 30.7641 20.2375 30.0057 19.7689 29.539L12.7388 22.3635L22.4051 20.7884C23.0496 20.6134 23.6354 20.1467 23.9869 19.5634L28.2049 10.6961L32.4229 19.5634C32.7159 20.2051 33.3603 20.6718 34.0047 20.7884L43.671 22.3635L36.6995 29.539Z" fill="url(#paint0_linear)"/>
<path d="M55.625 39H59.615V28.36H67.665V25.105H59.615V17.93H69.94V14.675H55.625V39ZM72.3077 29.27C72.3077 35.22 76.3327 39.315 81.3377 39.315C84.5577 39.315 86.8677 37.775 88.0927 36.13V39H92.1177V19.715H88.0927V22.515C86.9027 20.94 84.6627 19.4 81.4077 19.4C76.3327 19.4 72.3077 23.32 72.3077 29.27ZM88.0927 29.34C88.0927 33.505 85.2577 35.85 82.2477 35.85C79.2727 35.85 76.4027 33.435 76.4027 29.27C76.4027 25.105 79.2727 22.865 82.2477 22.865C85.2577 22.865 88.0927 25.21 88.0927 29.34ZM111.043 39H114.998V27.625C114.998 22.235 111.603 19.4 107.088 19.4C104.778 19.4 102.643 20.345 101.348 21.92V19.715H97.3584V39H101.348V28.22C101.348 24.685 103.273 22.865 106.213 22.865C109.118 22.865 111.043 24.685 111.043 28.22V39ZM118.758 29.34C118.758 35.395 122.678 39.315 128.208 39.315C132.933 39.315 136.013 36.69 137.098 32.91H132.793C132.058 34.905 130.588 35.955 128.208 35.955C124.988 35.955 122.853 33.575 122.853 29.34C122.853 25.14 124.988 22.76 128.208 22.76C130.588 22.76 132.128 23.95 132.793 25.805H137.098C136.013 21.745 132.933 19.4 128.208 19.4C122.678 19.4 118.758 23.32 118.758 29.34ZM148.669 34.415L143.244 19.715H138.799L146.394 38.685L142.474 48.065H146.604L158.434 19.715H154.304L148.669 34.415Z" fill="url(#paint1_linear)"/>
<defs>
<linearGradient id="paint0_linear" x1="28.2178" y1="7.3125" x2="28.2178" y2="44.6875" gradientUnits="userSpaceOnUse">
<stop stop-color="#2768FF"/>
<stop offset="1" stop-color="#BE27FF"/>
</linearGradient>
<linearGradient id="paint1_linear" x1="106.5" y1="0" x2="106.5" y2="52" gradientUnits="userSpaceOnUse">
<stop stop-color="#2768FF"/>
<stop offset="1" stop-color="#BE27FF"/>
</linearGradient>
</defs>
</svg>
